<mxfile host="app.diagrams.net" modified="2024-04-10T11:13:59.951Z" agent="Mozilla/5.0 (Windows NT 10.0; Win64; x64) AppleWebKit/537.36 (KHTML, like Gecko) Chrome/123.0.0.0 Safari/537.36" version="24.2.3" etag="4Mttux041VHqOdywVn_v" type="github">
  <diagram name="Page-1" id="7p0fxSGXShIOyeTE4uMV">
    <mxGraphModel>
      <root>
        <mxCell id="0" />
        <mxCell id="1" parent="0" />
      </root>
    </mxGraphModel>
  </diagram>
</mxfile>
